#!OML:ASF H:\Terrain\Patient Classification 1\Walking\liu\liu.ASF
:FULLY-SPECIFIED
:DEGREES
324
root 9.740710 16.369699 9.218860 7.205150 9.757400 4.440560
lowerback -4.033460 -2.442005 -3.238155
upperback -0.541630 -3.002225 0.922415
thorax 2.123960 -1.551535 2.407810
lowerneck -9.792750 -2.699355 -6.596150
upperneck 10.880900 -3.409145 6.407350
head 5.610600 -1.353895 2.940170
rclavicle -0.000000 -0.000000
rhumerus -25.362900 2.419875 -41.250900
rradius 15.213850
rwrist -7.857500
rhand -14.417850 -11.864200
rfingers 3.562510
rthumb -1.096520 -26.848400
lclavicle -0.000000 -0.000000
lhumerus -11.093500 -20.053499 49.555550
lradius 20.672850
lwrist 4.721210
lhand -2.641935 -12.282350
lfingers 3.562510
lthumb 10.260300 2.185385
rfemur -21.463751 0.728610 6.512500
rtibia 17.407600
rfoot -3.415130 -0.933780
rtoes -13.318200
lfemur 12.268950 2.141095 -11.087400
ltibia -0.000000
lfoot -3.581040 -2.527855
ltoes -7.425100
325
root 9.714460 16.357000 9.405260 7.035890 9.629550 4.066670
lowerback -3.922480 -2.379730 -3.046030
upperback -0.556020 -2.943740 0.932600
thorax 2.020595 -1.516500 2.329445
lowerneck -9.633950 -2.615455 -6.603950
upperneck 10.600100 -3.342470 6.643200
head 5.475600 -1.302185 3.032550
rclavicle 0.000000 -0.000000
rhumerus -25.436300 2.513360 -41.350651
rradius 15.288550
rwrist -8.132350
rhand -14.560350 -11.638250
rfingers 3.562510
rthumb -1.234145 -26.620951
lclavicle 0.000000 -0.000000
lhumerus -11.491900 -20.081551 49.802601
lradius 20.551600
lwrist 4.767055
lhand -2.708405 -12.303950
lfingers 3.562510
lthumb 10.196450 2.170630
rfemur -21.477699 0.707855 6.910950
rtibia 18.049200
rfoot -2.949960 -0.717365
rtoes -12.979100
lfemur 12.622250 2.303425 -10.690600
ltibia -0.000000
lfoot -2.806265 -2.618790
ltoes -7.986050
326
root 9.692980 16.352100 9.601310 6.949000 9.416130 3.767580
lowerback -3.933110 -2.323490 -2.921070
upperback -0.581310 -2.880195 0.959760
thorax 1.982225 -1.481610 2.297515
lowerneck -9.447300 -2.550555 -6.521900
upperneck 10.407050 -3.269525 6.605550
head 5.352800 -1.272395 3.007370
rclavicle 0.000000 0.000000
rhumerus -25.452551 2.551890 -41.319698
rradius 15.257100
rwrist -7.918700
rhand -14.230700 -11.109600
rfingers 3.562510
rthumb -0.915760 -26.095551
lclavicle 0.000000 0.000000
lhumerus -11.946000 -19.896299 50.097000
lradius 20.394751
lwrist 4.646825
lhand -2.928055 -12.374950
lfingers 3.562510
lthumb 9.985350 2.121925
rfemur -21.546749 0.746630 7.235350
rtibia 18.698950
rfoot -2.737505 -0.483958
rtoes -12.207800
lfemur 12.919350 2.501130 -10.338200
ltibia 0.000000
lfoot -1.929945 -2.486045
ltoes -7.824500
327
root 9.670920 16.346901 9.793550 7.037060 9.290460 3.473780
lowerback -4.015955 -2.312990 -2.821170
upperback -0.640045 -2.872895 1.017785
thorax 1.962245 -1.474945 2.299930
lowerneck -9.410000 -2.532255 -6.525100
upperneck 10.435050 -3.242585 6.577350
head 5.350450 -1.264795 3.002545
rclavicle 0.000000 -0.000000
rhumerus -25.358400 2.799285 -41.429249
rradius 15.124700
rwrist -7.828550
rhand -14.266450 -11.131950
rfingers 3.562510
rthumb -0.950310 -26.117550
lclavicle 0.000000 -0.000000
lhumerus -12.390550 -19.373850 50.407001
lradius 20.125500
lwrist 4.442640
lhand -3.196525 -12.468200
lfingers 3.562510
lthumb 9.727250 2.055180
rfemur -21.641399 0.739755 7.560000
rtibia 19.298401
rfoot -2.738105 -0.127365
rtoes -11.624600
lfemur 13.124350 2.656725 -10.005450
ltibia -0.000000
lfoot -1.035135 -2.274800
ltoes -7.426350
328
root 9.650580 16.342600 9.980380 7.015450 9.318950 3.154170
lowerback -4.011545 -2.351070 -2.693985
upperback -0.697850 -2.938115 1.089525
thorax 1.902475 -1.503380 2.297955
lowerneck -9.354850 -2.461360 -6.577650
upperneck 10.402650 -3.157535 6.686450
head 5.320750 -1.219970 3.065830
rclavicle 0.000000 -0.000000
rhumerus -25.234550 3.039620 -41.511299
rradius 15.032850
rwrist -7.843750
rhand -14.623550 -11.719350
rfingers 3.562510
rthumb -1.295200 -26.701401
lclavicle 0.000000 -0.000000
lhumerus -12.802050 -18.758051 50.688000
lradius 19.742300
lwrist 4.216030
lhand -3.269940 -12.465700
lfingers 3.562510
lthumb 9.656650 2.064790
rfemur -21.571899 0.659765 7.931300
rtibia 19.797899
rfoot -2.777725 0.206413
rtoes -10.928700
lfemur 13.378950 2.738430 -9.652900
ltibia 0.000000
lfoot -0.078161 -2.139715
ltoes -7.414800
329
root 9.629150 16.341700 10.167100 6.832790 9.283110 2.737170
lowerback -3.953915 -2.338495 -2.518485
upperback -0.691000 -2.941730 1.154820
thorax 1.867450 -1.502895 2.272030
lowerneck -9.403150 -2.425560 -6.577550
upperneck 10.355650 -3.109720 6.740350
head 5.307450 -1.190370 3.092105
rclavicle 0.000000 -0.000000
rhumerus -25.046400 3.003290 -41.376301
rradius 14.953200
rwrist -7.506350
rhand -14.114100 -12.461450
rfingers 3.562510
rthumb -0.803175 -27.448299
lclavicle 0.000000 -0.000000
lhumerus -13.140900 -18.385250 50.924000
lradius 19.361750
lwrist 3.962050
lhand -3.455695 -12.474550
lfingers 3.562510
lthumb 9.478000 2.073615
rfemur -21.377750 0.633155 8.366150
rtibia 20.187901
rfoot -2.791745 0.350338
rtoes -9.586150
lfemur 13.684900 2.853595 -9.240050
ltibia 0.000000
lfoot 1.009665 -1.991520
ltoes -7.681900
330
root 9.591640 16.348000 10.357400 6.707490 9.024390 1.926840
lowerback -3.969900 -2.252255 -2.219940
upperback -0.674075 -2.855515 1.262660
thorax 1.865835 -1.457325 2.227775
lowerneck -9.538450 -2.425680 -6.494050
upperneck 10.399100 -3.105365 6.672150
head 5.343050 -1.184520 3.053955
rclavicle 0.000000 0.000000
rhumerus -24.774099 2.801390 -41.167149
rradius 14.684000
rwrist -7.025050
rhand -12.905800 -13.427000
rfingers 3.562510
rthumb 0.363863 -28.416250
lclavicle 0.000000 0.000000
lhumerus -13.443100 -18.005951 51.080002
lradius 19.014650
lwrist 3.840500
lhand -4.025735 -12.592850
lfingers 3.562510
lthumb 8.929650 2.007105
rfemur -21.222900 0.937245 8.961700
rtibia 20.499800
rfoot -2.917505 0.240455
rtoes -8.512800
lfemur 13.898050 3.087120 -8.590950
ltibia 0.000000
lfoot 2.076280 -1.809115
ltoes -8.403450
331
root 9.558110 16.364201 10.550300 6.393250 8.937540 0.980213
lowerback -3.961075 -2.209345 -1.852415
upperback -0.631025 -2.834845 1.388300
thorax 1.880960 -1.444260 2.155290
lowerneck -9.655100 -2.410385 -6.392250
upperneck 10.507800 -3.089645 6.587450
head 5.395800 -1.174630 3.010825
rclavicle 0.000000 0.000000
rhumerus -24.511450 2.683425 -41.033699
rradius 14.444100
rwrist -6.812950
rhand -12.392450 -13.418850
rfingers 3.562510
rthumb 0.859665 -28.405251
lclavicle 0.000000 0.000000
lhumerus -13.708900 -17.480249 51.175999
lradius 18.598499
lwrist 3.947765
lhand -4.407050 -12.659700
lfingers 3.562510
lthumb 8.562700 1.972935
rfemur -20.880650 1.182770 9.635600
rtibia 20.756550
rfoot -3.186665 0.267062
rtoes -8.029600
lfemur 14.211350 3.229670 -7.844950
ltibia 0.000000
lfoot 3.041610 -1.612820
ltoes -9.001300
332
root 9.549160 16.385799 10.736300 6.020710 9.208590 0.805150
lowerback -3.878675 -2.232165 -1.747805
upperback -0.560655 -2.876910 1.387430
thorax 1.902540 -1.465450 2.093630
lowerneck -9.742200 -2.446940 -6.386250
upperneck 10.567050 -3.141605 6.597000
head 5.442600 -1.193950 3.007795
rclavicle 0.000000 -0.000000
rhumerus -24.276550 2.635550 -41.015450
rradius 14.579550
rwrist -6.782500
rhand -12.622600 -14.380950
rfingers 3.562510
rthumb 0.637400 -29.368900
lclavicle 0.000000 -0.000000
lhumerus -13.893750 -17.005751 51.293999
lradius 18.032700
lwrist 3.927965
lhand -4.647795 -12.705150
lfingers 3.562510
lthumb 8.330950 1.947280
rfemur -20.378599 0.913670 9.938450
rtibia 20.977051
rfoot -3.522485 0.695795
rtoes -8.056600
lfemur 12.611100 3.333345 -7.474750
ltibia 3.829960
lfoot 2.475350 -2.019285
ltoes -7.995550
